<svg id="Group_5" data-name="Group 5" xmlns="http://www.w3.org/2000/svg" width="25.793" height="20.806" viewBox="0 0 25.793 20.806">
  <path id="Path_5" data-name="Path 5" d="M25.255,50.991H20.7l-5.751-8.1a.549.549,0,0,0-.747-.134.51.51,0,0,0-.139.723L19.4,50.991H6.4l5.332-7.507a.51.51,0,0,0-.139-.723.55.55,0,0,0-.747.134l-5.751,8.1H.537a.52.52,0,1,0,0,1.04h.682L4.5,62.024a2.136,2.136,0,0,0,2.048,1.45H19.241a2.136,2.136,0,0,0,2.048-1.45l3.285-9.993h.682a.52.52,0,1,0,0-1.04ZM20.264,61.708a1.068,1.068,0,0,1-1.024.725H6.552a1.068,1.068,0,0,1-1.024-.725L2.347,52.031h21.1Z" transform="translate(0 -42.669)"/>
</svg>
