<svg xmlns="http://www.w3.org/2000/svg" width="29.543" height="29.543" viewBox="0 0 29.543 29.543">
  <path id="Icon_feather-message-circle" data-name="Icon feather-message-circle" d="M31.543,17.27a12.59,12.59,0,0,1-1.352,5.709,12.77,12.77,0,0,1-11.418,7.061,12.59,12.59,0,0,1-5.709-1.352L4.5,31.543,7.355,22.98A12.59,12.59,0,0,1,6,17.27,12.77,12.77,0,0,1,13.064,5.852,12.59,12.59,0,0,1,18.773,4.5h.751A12.74,12.74,0,0,1,31.543,16.519Z" transform="translate(-3.25 -3.25)" fill="none" stroke="#fff" stroke-linecap="round" stroke-linejoin="round" stroke-width="2.5"/>
</svg>
