<svg xmlns="http://www.w3.org/2000/svg" width="25.691" height="25.737" viewBox="0 0 25.691 25.737">
  <g id="Icon_feather-phone-outgoing" data-name="Icon feather-phone-outgoing" transform="translate(0.751 1.061)">
    <path id="Path_48381" data-name="Path 48381" d="M32.359,8.359V1.5H25.5" transform="translate(-8.48 -1.5)" fill="none" stroke="#e9962d" stroke-linecap="round" stroke-linejoin="round" stroke-width="1.5"/>
    <path id="Path_48382" data-name="Path 48382" d="M24,9.5l8-8" transform="translate(-8.123 -1.5)" fill="none" stroke="#e9962d" stroke-linecap="round" stroke-linejoin="round" stroke-width="1.5"/>
    <path id="Path_48383" data-name="Path 48383" d="M25.9,20.056v3.43a2.286,2.286,0,0,1-2.492,2.286,22.624,22.624,0,0,1-9.866-3.51A22.292,22.292,0,0,1,6.687,15.4a22.624,22.624,0,0,1-3.51-9.911A2.286,2.286,0,0,1,5.452,3h3.43a2.286,2.286,0,0,1,2.286,1.966,14.678,14.678,0,0,0,.8,3.212,2.286,2.286,0,0,1-.514,2.412L10,12.043A18.291,18.291,0,0,0,16.861,18.9l1.452-1.452a2.286,2.286,0,0,1,2.412-.514,14.679,14.679,0,0,0,3.212.8A2.286,2.286,0,0,1,25.9,20.056Z" transform="translate(-3.168 -1.857)" fill="none" stroke="#e9962d" stroke-linecap="round" stroke-linejoin="round" stroke-width="1.5"/>
  </g>
</svg>
