<svg id="Component_1_1" data-name="Component 1 – 1" xmlns="http://www.w3.org/2000/svg" width="17.489" height="20.987" viewBox="0 0 17.489 20.987">
  <g id="Group_1" data-name="Group 1" transform="translate(6.996)">
    <path id="Path_1" data-name="Path 1" d="M13.061,3.655a.437.437,0,0,1-.437-.437V1.749a.874.874,0,0,0-1.749,0V3.218a.437.437,0,0,1-.874,0V1.749a1.749,1.749,0,1,1,3.5,0V3.218A.437.437,0,0,1,13.061,3.655Z" transform="translate(-10 0)"/>
  </g>
  <g id="Group_2" data-name="Group 2" transform="translate(5.684 17.489)">
    <path id="Path_2" data-name="Path 2" d="M11.561,23.5A3.064,3.064,0,0,1,8.5,20.437a.437.437,0,1,1,.874,0,2.186,2.186,0,0,0,4.372,0,.437.437,0,0,1,.874,0A3.064,3.064,0,0,1,11.561,23.5Z" transform="translate(-8.5 -20)"/>
  </g>
  <g id="Group_3" data-name="Group 3" transform="translate(0 2.624)">
    <path id="Path_3" data-name="Path 3" d="M18.177,18.74H3.312a1.312,1.312,0,0,1-.853-2.309,6.08,6.08,0,0,0,2.164-4.654V9.121a6.121,6.121,0,1,1,12.242,0v2.657a6.073,6.073,0,0,0,2.157,4.648,1.312,1.312,0,0,1-.846,2.315ZM10.745,3.874A5.252,5.252,0,0,0,5.5,9.121v2.657a6.947,6.947,0,0,1-2.467,5.316.437.437,0,0,0,.281.772H18.177a.437.437,0,0,0,.284-.77,6.952,6.952,0,0,1-2.47-5.318V9.121a5.252,5.252,0,0,0-5.247-5.247Z" transform="translate(-2 -3)"/>
  </g>
</svg>
