<svg xmlns="http://www.w3.org/2000/svg" width="21.568" height="17.518" viewBox="0 0 21.568 17.518">
  <path id="Icon_awesome-twitter" data-name="Icon awesome-twitter" d="M19.351,7.746c.014.192.014.383.014.575A12.491,12.491,0,0,1,6.788,20.9,12.492,12.492,0,0,1,0,18.914a9.145,9.145,0,0,0,1.067.055A8.853,8.853,0,0,0,6.555,17.08a4.428,4.428,0,0,1-4.133-3.066,5.575,5.575,0,0,0,.835.068,4.675,4.675,0,0,0,1.163-.151A4.421,4.421,0,0,1,.876,9.594V9.539a4.452,4.452,0,0,0,2,.561A4.427,4.427,0,0,1,1.505,4.188,12.565,12.565,0,0,0,10.62,8.814,4.99,4.99,0,0,1,10.51,7.8a4.425,4.425,0,0,1,7.65-3.025,8.7,8.7,0,0,0,2.806-1.067,4.408,4.408,0,0,1-1.943,2.436,8.862,8.862,0,0,0,2.545-.684,9.5,9.5,0,0,1-2.217,2.285Z" transform="translate(0 -3.381)" fill="#fff"/>
</svg>
