<svg xmlns="http://www.w3.org/2000/svg" width="19.991" height="19.991" viewBox="0 0 19.991 19.991">
  <path id="Icon_simple-instagram" data-name="Icon simple-instagram" d="M10,0C7.28,0,6.941.012,5.875.06A7.371,7.371,0,0,0,3.448.525,4.895,4.895,0,0,0,1.678,1.678,4.877,4.877,0,0,0,.525,3.448,7.349,7.349,0,0,0,.06,5.875C.01,6.941,0,7.28,0,10s.012,3.054.06,4.121a7.375,7.375,0,0,0,.465,2.426,4.9,4.9,0,0,0,1.153,1.771,4.888,4.888,0,0,0,1.771,1.153,7.38,7.38,0,0,0,2.426.465c1.066.05,1.405.06,4.121.06s3.054-.012,4.121-.06a7.4,7.4,0,0,0,2.426-.465,5.108,5.108,0,0,0,2.924-2.924,7.375,7.375,0,0,0,.465-2.426c.05-1.066.06-1.405.06-4.121s-.012-3.054-.06-4.121a7.392,7.392,0,0,0-.465-2.426,4.906,4.906,0,0,0-1.153-1.771A4.87,4.87,0,0,0,16.543.525,7.354,7.354,0,0,0,14.116.06C13.05.01,12.711,0,10,0Zm0,1.8c2.668,0,2.986.013,4.04.059a5.507,5.507,0,0,1,1.855.346,3.289,3.289,0,0,1,1.9,1.9,5.519,5.519,0,0,1,.344,1.855c.047,1.055.058,1.371.058,4.04s-.012,2.986-.062,4.04a5.625,5.625,0,0,1-.351,1.855,3.174,3.174,0,0,1-.749,1.151,3.118,3.118,0,0,1-1.149.746,5.559,5.559,0,0,1-1.862.344c-1.061.047-1.374.058-4.047.058s-2.987-.012-4.047-.062a5.668,5.668,0,0,1-1.863-.351,3.1,3.1,0,0,1-1.149-.749,3.035,3.035,0,0,1-.75-1.149,5.673,5.673,0,0,1-.35-1.862c-.037-1.05-.051-1.374-.051-4.035S1.775,7,1.813,5.934a5.666,5.666,0,0,1,.35-1.861,2.963,2.963,0,0,1,.75-1.15,2.956,2.956,0,0,1,1.149-.748,5.532,5.532,0,0,1,1.85-.351c1.062-.037,1.374-.05,4.047-.05L10,1.8Zm0,3.064A5.133,5.133,0,1,0,15.128,10,5.132,5.132,0,0,0,10,4.863Zm0,8.465A3.332,3.332,0,1,1,13.327,10,3.331,3.331,0,0,1,10,13.327ZM16.531,4.66a1.2,1.2,0,1,1-1.2-1.2A1.2,1.2,0,0,1,16.531,4.66Z" fill="#fff"/>
</svg>
