<svg xmlns="http://www.w3.org/2000/svg" width="17.039" height="17.369" viewBox="0 0 17.039 17.369">
  <path id="Icon_ionic-logo-google" data-name="Icon ionic-logo-google" d="M20.595,10.728l-.088-.372H12.426v3.42h4.828a4.832,4.832,0,0,1-4.727,3.633,5.653,5.653,0,0,1-3.8-1.516A5.431,5.431,0,0,1,7.1,12.06,5.6,5.6,0,0,1,8.693,8.231a5.412,5.412,0,0,1,3.779-1.478A4.93,4.93,0,0,1,15.688,8l2.431-2.418a8.6,8.6,0,0,0-5.725-2.2h0A8.851,8.851,0,0,0,6.129,5.929a8.815,8.815,0,0,0-2.472,6.135A8.727,8.727,0,0,0,6.032,18.1a9.065,9.065,0,0,0,6.536,2.652,8.062,8.062,0,0,0,5.872-2.468,8.669,8.669,0,0,0,2.255-6.005A10,10,0,0,0,20.595,10.728Z" transform="translate(-3.656 -3.382)" fill="#fff"/>
</svg>
