<svg id="target" xmlns="http://www.w3.org/2000/svg" width="27.811" height="27.811" viewBox="0 0 27.811 27.811">
  <path id="target-2" data-name="target" d="M13.905,8.849a5.057,5.057,0,1,0,5.056,5.057A5.055,5.055,0,0,0,13.905,8.849Zm11.3,3.792A11.37,11.37,0,0,0,15.17,2.6V0H12.641V2.6A11.37,11.37,0,0,0,2.6,12.641H0V15.17H2.6A11.37,11.37,0,0,0,12.641,25.207v2.6H15.17v-2.6A11.37,11.37,0,0,0,25.207,15.17h2.6V12.641h-2.6Zm-11.3,10.113a8.849,8.849,0,1,1,8.849-8.849A8.85,8.85,0,0,1,13.905,22.754Z" fill="#6f356d"/>
</svg>
