<svg xmlns="http://www.w3.org/2000/svg" width="25.939" height="30.516" viewBox="0 0 25.939 30.516">
  <path id="BinIcon" d="M-5524.817-1641.573c.028-6.672.015-13.346.015-20.018v-.4c-.2-.045-.372-.076-.543-.126a2.51,2.51,0,0,1-1.82-2.669,2.5,2.5,0,0,1,2.465-2.246c1.929-.029,3.863-.011,5.792-.011.12,0,.242,0,.416,0v-.423a2.094,2.094,0,0,1,1.707-2.2.352.352,0,0,0,.073-.048h5c.095.034.186.07.28.1a2.1,2.1,0,0,1,1.5,1.936c0,.2,0,.392,0,.63h.386c1.88,0,3.761-.009,5.639,0a2.563,2.563,0,0,1,2.573,1.848,2.475,2.475,0,0,1-1.461,2.969.436.436,0,0,0-.321.5q.01,10.141,0,20.284a2.121,2.121,0,0,1-1.844,2.207,3.211,3.211,0,0,1-.544.025l-5.061,0c-3.935,0-7.867-.006-11.8.02h-.02A2.291,2.291,0,0,1-5524.817-1641.573Zm1.6-20.088v20.133c0,.608.172.776.8.776h16.922c.621,0,.794-.171.794-.779v-20.461h-18.516Zm-1.515-3.821a.962.962,0,0,0-.844,1.137.982.982,0,0,0,1.088.787q5.136,0,10.276,0h10.121a3.634,3.634,0,0,0,.4-.012.958.958,0,0,0,.845-1.134c-.111-.535-.494-.789-1.183-.789q-10.182-.005-20.366,0h-.112A2.073,2.073,0,0,0-5524.732-1665.482Zm8.373-2.669a.5.5,0,0,0-.531.443,4.115,4.115,0,0,0-.006.655h5.374c0-.216.009-.4,0-.591a.526.526,0,0,0-.536-.507c-.715,0-1.433-.006-2.148-.006S-5515.643-1668.155-5516.359-1668.151Zm7.4,24.536a.771.771,0,0,1-.747-.661,2.7,2.7,0,0,1-.019-.387V-1658.2c0-.5.182-.784.55-.894a.774.774,0,0,1,1.009.591,2.168,2.168,0,0,1,.028.386v13.484a2.111,2.111,0,0,1-.032.412.774.774,0,0,1-.766.611Zm-5.745-.546a1.146,1.146,0,0,1-.05-.35q0-6.861,0-13.721a1.223,1.223,0,0,1,.037-.325.777.777,0,0,1,.814-.577.772.772,0,0,1,.729.714c.007.109,0,.219,0,.328v13.453a3.035,3.035,0,0,1-.008.327.776.776,0,0,1-.715.695c-.022,0-.044,0-.068,0A.775.775,0,0,1-5514.7-1644.161Zm-4.34.544a.779.779,0,0,1-.72-.692c-.011-.109-.009-.218-.009-.328v-6.756q0-3.441,0-6.876a.78.78,0,0,1,.968-.843.744.744,0,0,1,.6.638,1.855,1.855,0,0,1,.017.356v13.487a1.683,1.683,0,0,1-.052.468.762.762,0,0,1-.741.549C-5519-1643.615-5519.024-1643.615-5519.044-1643.617Z" transform="translate(5527.185 1669.705)" fill="#fff"/>
</svg>
